<?xml version="1.0" encoding="UTF-8"?>
<svg id="Layer_1" data-name="Layer 1" xmlns="http://www.w3.org/2000/svg" version="1.1" viewBox="0 0 283.46 47.17">
  <defs>
    <style>
      .cls-1 {
        fill: #ffffff;
        stroke-width: 0px;
      }
    </style>
  </defs>
  <path class="cls-1" d="M60.69,41.81c-2.56,0-4.93-.46-7.11-1.38-2.18-.92-4.09-2.2-5.73-3.86-1.64-1.65-2.92-3.61-3.84-5.85-.92-2.25-1.38-4.7-1.38-7.35s.46-5.1,1.38-7.33c.92-2.23,2.2-4.16,3.84-5.8,1.64-1.64,3.55-2.92,5.73-3.84,2.18-.92,4.55-1.38,7.11-1.38s4.93.46,7.13,1.38c2.2.92,4.12,2.2,5.78,3.84,1.65,1.64,2.94,3.57,3.86,5.8.92,2.23,1.38,4.67,1.38,7.33s-.46,5.11-1.38,7.35c-.92,2.25-2.21,4.2-3.86,5.85s-3.58,2.94-5.78,3.86c-2.2.92-4.57,1.38-7.13,1.38ZM60.69,35.12c1.61,0,3.06-.3,4.35-.91,1.29-.61,2.39-1.45,3.29-2.53.9-1.08,1.59-2.34,2.07-3.76.47-1.43.71-2.94.71-4.55s-.24-3.11-.71-4.52c-.48-1.41-1.16-2.65-2.07-3.71-.9-1.07-2-1.9-3.29-2.51-1.3-.61-2.75-.91-4.35-.91s-3.05.3-4.33.91c-1.28.61-2.37,1.44-3.27,2.51-.9,1.07-1.59,2.3-2.07,3.71-.48,1.41-.71,2.92-.71,4.52s.24,3.12.71,4.55c.47,1.43,1.16,2.68,2.07,3.76.9,1.08,1.99,1.93,3.27,2.53,1.28.61,2.72.91,4.33.91Z"/>
  <path class="cls-1" d="M98.61,41.78h-13.05V5.02h13.05c3.89,0,7.24.77,10.03,2.3,2.8,1.54,4.95,3.67,6.45,6.4,1.5,2.73,2.25,5.89,2.25,9.47s-.77,6.73-2.3,9.55c-1.54,2.82-3.71,5.03-6.53,6.63-2.82,1.6-6.12,2.41-9.91,2.41ZM93.34,11.73v23.35h4.86c2.46,0,4.51-.46,6.17-1.38,1.66-.92,2.9-2.27,3.74-4.04.84-1.77,1.25-3.92,1.25-6.45s-.42-4.54-1.25-6.25c-.84-1.71-2.08-3-3.74-3.89-1.66-.89-3.71-1.33-6.17-1.33h-4.86Z"/>
  <path class="cls-1" d="M136.58,41.78h-12.98V5.25h12.98c3.87,0,7.19.76,9.97,2.29,2.78,1.53,4.92,3.65,6.41,6.36,1.49,2.71,2.24,5.85,2.24,9.41s-.76,6.69-2.29,9.49c-1.53,2.8-3.69,5-6.49,6.59-2.8,1.59-6.08,2.39-9.85,2.39ZM131.34,11.91v23.2h4.83c2.44,0,4.49-.46,6.13-1.37,1.65-.92,2.88-2.26,3.71-4.02.83-1.76,1.25-3.9,1.25-6.41s-.42-4.51-1.25-6.21c-.83-1.7-2.07-2.98-3.71-3.87-1.65-.88-3.69-1.32-6.13-1.32h-4.83Z"/>
  <path class="cls-1" d="M189.77,30.23c0,2.25-.58,4.24-1.74,5.97-1.16,1.73-2.8,3.1-4.93,4.09-2.13.99-4.7,1.49-7.71,1.49s-5.56-.5-7.76-1.51c-2.2-1.01-3.92-2.44-5.18-4.29-1.26-1.85-1.98-4.03-2.18-6.54h7.63c.1,1.98.77,3.55,2.01,4.71,1.24,1.16,3.02,1.73,5.33,1.73,1.29,0,2.42-.18,3.4-.55.97-.36,1.74-.89,2.31-1.59.56-.69.84-1.5.84-2.43,0-1.12-.41-2.02-1.24-2.7-.83-.68-2-1.17-3.52-1.46l-5.85-1.14c-1.36-.23-2.61-.61-3.77-1.14-1.16-.53-2.16-1.19-3.02-1.98s-1.54-1.75-2.03-2.88c-.5-1.12-.74-2.41-.74-3.87,0-2.11.57-4,1.71-5.65,1.14-1.65,2.71-2.94,4.71-3.87,2-.92,4.29-1.39,6.87-1.39s5.06.5,7.14,1.49c2.08.99,3.77,2.39,5.06,4.19,1.29,1.8,2,3.94,2.13,6.42h-7.63c-.07-1.26-.39-2.35-.97-3.3-.58-.94-1.35-1.67-2.31-2.18-.96-.51-2.07-.77-3.32-.77s-2.26.21-3.1.62c-.84.41-1.5.96-1.96,1.64-.46.68-.69,1.45-.69,2.31,0,.79.22,1.45.67,1.98.45.53,1.03.95,1.76,1.26.73.31,1.52.55,2.38.72l6.1,1.24c3.14.63,5.53,1.69,7.16,3.2,1.64,1.5,2.45,3.56,2.45,6.17Z"/>
  <path class="cls-1" d="M212.91,41.78c-2.56,0-4.92-.46-7.1-1.38-2.18-.92-4.09-2.2-5.73-3.86-1.64-1.65-2.92-3.6-3.83-5.85-.92-2.24-1.38-4.69-1.38-7.35s.46-5.09,1.38-7.32c.92-2.23,2.19-4.16,3.83-5.8s3.55-2.92,5.73-3.83c2.18-.92,4.55-1.38,7.1-1.38s4.93.46,7.13,1.38c2.19.92,4.12,2.2,5.77,3.83,1.65,1.64,2.94,3.57,3.86,5.8.92,2.23,1.38,4.67,1.38,7.32s-.46,5.1-1.38,7.35c-.92,2.24-2.2,4.19-3.86,5.85s-3.58,2.94-5.77,3.86c-2.2.92-4.57,1.38-7.13,1.38ZM212.91,35.1c1.61,0,3.05-.3,4.35-.91,1.29-.61,2.39-1.45,3.29-2.53.9-1.08,1.59-2.33,2.06-3.76.47-1.42.71-2.94.71-4.55s-.24-3.11-.71-4.52c-.48-1.41-1.16-2.65-2.06-3.71-.9-1.06-2-1.9-3.29-2.51-1.29-.61-2.74-.91-4.35-.91s-3.05.3-4.32.91c-1.28.61-2.37,1.44-3.27,2.51-.9,1.06-1.59,2.3-2.06,3.71-.48,1.41-.71,2.92-.71,4.52s.24,3.12.71,4.55c.47,1.43,1.16,2.68,2.06,3.76.9,1.08,1.99,1.93,3.27,2.53,1.28.61,2.72.91,4.32.91Z"/>
  <path class="cls-1" d="M242.48,41.78h-9.11l11.52-18.79-10.34-17.97h9.06l7.17,13.16,7.63-13.16h8.7l-10.7,18.28,11.37,18.48h-9.16l-8.04-13.82-8.09,13.82Z"/>
  <path class="cls-1" d="M20.67,41.78L36.3,5.02h6.49l-15.69,36.76h-6.43Z"/>
  <path class="cls-1" d="M8.28,41.78L23.91,5.02h6.49l-15.69,36.76h-6.43Z"/>
  <rect class="cls-1" x="272.52" y="35.12" width="6.67" height="6.67"/>
</svg>